{
  "accessors": [
    {
      "bufferView": 2,
      "componentType": 5126,
      "count": 616,
      "max": [
        4.320809841156006,
        4.614296913146973,
        0.01696999929845333
      ],
      "min": [
        -4.170945167541504,
        -4.316296100616455,
        -3.313577890396118
      ],
      "type": "VEC3"
    },
    {
      "bufferView": 2,
      "byteOffset": 7392,
      "componentType": 5126,
      "count": 616,
      "max": [
        0.9997856020927429,
        0.9998632669448853,
        0.41080519556999207
      ],
      "min": [
        -0.999992847442627,
        -0.9999668598175049,
        -0.9999254941940308
      ],
      "type": "VEC3"
    },
    {
      "bufferView": 1,
      "componentType": 5126,
      "count": 616,
      "max": [
        1.9958289861679077,
        0.99651700258255
      ],
      "min": [
        0.004155000206083059,
        0.00318100000731647
      ],
      "type": "VEC2"
    },
    {
      "bufferView": 0,
      "componentType": 5125,
      "count": 1134,
      "type": "SCALAR"
    }
  ],
  "asset": {
    "extras": {
      "author": "Phoenix... (https://sketchfab.com/projectend0005)",
      "license": "CC-BY-4.0 (http://creativecommons.org/licenses/by/4.0/)",
      "source": "https://sketchfab.com/3d-models/uav-97650de1d69a4a04b46ad6aaa85aebf9",
      "title": "uAV"
    },
    "generator": "Sketchfab-12.64.0",
    "version": "2.0"
  },
  "bufferViews": [
    {
      "buffer": 0,
      "byteLength": 4536,
      "name": "floatBufferViews",
      "target": 34963
    },
    {
      "buffer": 0,
      "byteLength": 4928,
      "byteOffset": 4536,
      "byteStride": 8,
      "name": "floatBufferViews",
      "target": 34962
    },
    {
      "buffer": 0,
      "byteLength": 14784,
      "byteOffset": 9464,
      "byteStride": 12,
      "name": "floatBufferViews",
      "target": 34962
    }
  ],
  "buffers": [
    {
      "byteLength": 24248,
      "uri": "scene.bin"
    }
  ],
  "images": [
    {
      "uri": "textures/PickUp_UAV_D_baseColor.png"
    }
  ],
  "materials": [
    {
      "doubleSided": true,
      "name": "PickUp_UAV_D",
      "pbrMetallicRoughness": {
        "baseColorTexture": {
          "index": 0
        },
        "metallicFactor": 0.09291264615216242,
        "roughnessFactor": 0.6
      }
    }
  ],
  "meshes": [
    {
      "name": "Object_0",
      "primitives": [
        {
          "attributes": {
            "NORMAL": 1,
            "POSITION": 0,
            "TEXCOORD_0": 2
          },
          "indices": 3,
          "material": 0,
          "mode": 4
        }
      ]
    }
  ],
  "nodes": [
    {
      "children": [
        1
      ],
      "matrix": [
        2.220446049250313e-16,
        -6.123234262925839e-17,
        1.0,
        0.0,
        -1.0,
        2.2204460492503126e-16,
        2.2204460492503136e-16,
        0.0,
        -2.220446049250313e-16,
        -1.0,
        -6.123234262925839e-17,
        0.0,
        0.2239222526550293,
        -3.2966091632843018,
        -0.22392225265503002,
        1.0
      ],
      "name": "Sketchfab_model"
    },
    {
      "children": [
        2
      ],
      "name": "fcf82abd7db64d99bd0b5ee5dfd0398c.obj.cleaner.materialmerger.gles"
    },
    {
      "mesh": 0,
      "name": "Object_2"
    }
  ],
  "samplers": [
    {
      "magFilter": 9729,
      "minFilter": 9987,
      "wrapS": 10497,
      "wrapT": 10497
    }
  ],
  "scene": 0,
  "scenes": [
    {
      "name": "Sketchfab_Scene",
      "nodes": [
        0
      ]
    }
  ],
  "textures": [
    {
      "sampler": 0,
      "source": 0
    }
  ]
}
