{
  "accessors": [
    {
      "bufferView": 2,
      "componentType": 5126,
      "count": 674,
      "max": [
        248.3740692138672,
        15.668434143066406,
        14.045370101928711
      ],
      "min": [
        -248.3740692138672,
        2.578251361846924,
        -48.543540954589844
      ],
      "type": "VEC3"
    },
    {
      "bufferView": 2,
      "byteOffset": 8088,
      "componentType": 5126,
      "count": 674,
      "max": [
        0.9396920204162598,
        1.0,
        1.0
      ],
      "min": [
        -0.9396951198577881,
        -0.9999979138374329,
        -1.0
      ],
      "type": "VEC3"
    },
    {
      "bufferView": 1,
      "componentType": 5126,
      "count": 674,
      "max": [
        10.767580032348633,
        0.9981496930122375
      ],
      "min": [
        -9.767580032348633,
        0.0035341978073120117
      ],
      "type": "VEC2"
    },
    {
      "bufferView": 0,
      "componentType": 5125,
      "count": 2064,
      "type": "SCALAR"
    }
  ],
  "asset": {
    "extras": {
      "author": "Low poly 3d Models (https://sketchfab.com/lowpoly3dmodels)",
      "license": "CC-BY-4.0 (http://creativecommons.org/licenses/by/4.0/)",
      "source": "https://sketchfab.com/3d-models/tunnel-road-9022ca0e48924aad96123389d5322a7d",
      "title": "Tunnel Road"
    },
    "generator": "Sketchfab-16.10.0",
    "version": "2.0"
  },
  "bufferViews": [
    {
      "buffer": 0,
      "byteLength": 8256,
      "name": "floatBufferViews",
      "target": 34963
    },
    {
      "buffer": 0,
      "byteLength": 5392,
      "byteOffset": 8256,
      "byteStride": 8,
      "name": "floatBufferViews",
      "target": 34962
    },
    {
      "buffer": 0,
      "byteLength": 16176,
      "byteOffset": 13648,
      "byteStride": 12,
      "name": "floatBufferViews",
      "target": 34962
    }
  ],
  "buffers": [
    {
      "byteLength": 29824,
      "uri": "scene.bin"
    }
  ],
  "images": [
    {
      "uri": "textures/tunnel_road_texture_baseColor.jpeg"
    }
  ],
  "materials": [
    {
      "doubleSided": true,
      "name": "tunnel_road_texture",
      "pbrMetallicRoughness": {
        "baseColorTexture": {
          "index": 0
        },
        "metallicFactor": 0.0,
        "roughnessFactor": 0.6
      }
    }
  ],
  "meshes": [
    {
      "name": "tunnel_2_tunnel_road_texture_0",
      "primitives": [
        {
          "attributes": {
            "NORMAL": 1,
            "POSITION": 0,
            "TEXCOORD_0": 2
          },
          "indices": 3,
          "material": 0,
          "mode": 4
        }
      ]
    }
  ],
  "nodes": [
    {
      "children": [
        1
      ],
      "matrix": [
        1.0,
        0.0,
        0.0,
        0.0,
        0.0,
        2.220446049250313e-16,
        -1.0,
        0.0,
        0.0,
        1.0,
        2.220446049250313e-16,
        0.0,
        0.0,
        0.0,
        0.0,
        1.0
      ],
      "name": "Sketchfab_model"
    },
    {
      "children": [
        2
      ],
      "matrix": [
        0.009999999776482582,
        0.0,
        0.0,
        0.0,
        0.0,
        0.0,
        0.009999999776482582,
        0.0,
        0.0,
        -0.009999999776482582,
        0.0,
        0.0,
        0.0,
        0.0,
        0.0,
        1.0
      ],
      "name": "dacd20ca2e674f39a5e9eae13b016a21.fbx"
    },
    {
      "children": [
        3
      ],
      "name": "RootNode"
    },
    {
      "children": [
        4
      ],
      "name": "tunnel_2"
    },
    {
      "mesh": 0,
      "name": "tunnel_2_tunnel_road_texture_0"
    }
  ],
  "samplers": [
    {
      "magFilter": 9729,
      "minFilter": 9987,
      "wrapS": 10497,
      "wrapT": 10497
    }
  ],
  "scene": 0,
  "scenes": [
    {
      "name": "Sketchfab_Scene",
      "nodes": [
        0
      ]
    }
  ],
  "textures": [
    {
      "sampler": 0,
      "source": 0
    }
  ]
}
