{
    "asset": {
        "generator": "FBX2glTF v0.9.7",
        "version": "2.0"
    },
    "scene": 0,
    "buffers": [
        {
            "byteLength": 1415984,
            "uri": "buffer.bin"
        }
    ],
    "bufferViews": [
        {
            "buffer": 0,
            "byteLength": 211902,
            "byteOffset": 0,
            "target": 34963
        },
        {
            "buffer": 0,
            "byteLength": 446688,
            "byteOffset": 211904,
            "target": 34962
        },
        {
            "buffer": 0,
            "byteLength": 446688,
            "byteOffset": 658592,
            "target": 34962
        },
        {
            "buffer": 0,
            "byteLength": 297792,
            "byteOffset": 1105280,
            "target": 34962
        },
        {
            "buffer": 0,
            "byteLength": 1296,
            "byteOffset": 1403072,
            "target": 34963
        },
        {
            "buffer": 0,
            "byteLength": 3096,
            "byteOffset": 1404368,
            "target": 34962
        },
        {
            "buffer": 0,
            "byteLength": 3096,
            "byteOffset": 1407464,
            "target": 34962
        },
        {
            "buffer": 0,
            "byteLength": 2064,
            "byteOffset": 1410560,
            "target": 34962
        },
        {
            "buffer": 0,
            "byteLength": 288,
            "byteOffset": 1412624,
            "target": 34963
        },
        {
            "buffer": 0,
            "byteLength": 1152,
            "byteOffset": 1412912,
            "target": 34962
        },
        {
            "buffer": 0,
            "byteLength": 1152,
            "byteOffset": 1414064,
            "target": 34962
        },
        {
            "buffer": 0,
            "byteLength": 768,
            "byteOffset": 1415216,
            "target": 34962
        }
    ],
    "scenes": [
        {
            "name": "Root Scene",
            "nodes": [
                0
            ]
        }
    ],
    "accessors": [
        {
            "componentType": 5123,
            "type": "SCALAR",
            "count": 105951,
            "bufferView": 0,
            "byteOffset": 0
        },
        {
            "componentType": 5126,
            "type": "VEC3",
            "count": 37224,
            "bufferView": 1,
            "byteOffset": 0,
            "min": [
                -0.739230990409851,
                -2.42598390579224,
                0.00981299951672554
            ],
            "max": [
                0.767598032951355,
                2.8597309589386,
                1.11974000930786
            ]
        },
        {
            "componentType": 5126,
            "type": "VEC3",
            "count": 37224,
            "bufferView": 2,
            "byteOffset": 0
        },
        {
            "componentType": 5126,
            "type": "VEC2",
            "count": 37224,
            "bufferView": 3,
            "byteOffset": 0
        },
        {
            "componentType": 5123,
            "type": "SCALAR",
            "count": 648,
            "bufferView": 4,
            "byteOffset": 0
        },
        {
            "componentType": 5126,
            "type": "VEC3",
            "count": 258,
            "bufferView": 5,
            "byteOffset": 0,
            "min": [
                -0.697622001171112,
                -0.214979991316795,
                0.462826997041702
            ],
            "max": [
                0.670192003250122,
                2.35051679611206,
                0.472434997558594
            ]
        },
        {
            "componentType": 5126,
            "type": "VEC3",
            "count": 258,
            "bufferView": 6,
            "byteOffset": 0
        },
        {
            "componentType": 5126,
            "type": "VEC2",
            "count": 258,
            "bufferView": 7,
            "byteOffset": 0
        },
        {
            "componentType": 5123,
            "type": "SCALAR",
            "count": 144,
            "bufferView": 8,
            "byteOffset": 0
        },
        {
            "componentType": 5126,
            "type": "VEC3",
            "count": 96,
            "bufferView": 9,
            "byteOffset": 0,
            "min": [
                -0.300905972719193,
                -0.468212008476257,
                0.465660005807877
            ],
            "max": [
                0.621531963348389,
                1.4637359380722,
                0.547086000442505
            ]
        },
        {
            "componentType": 5126,
            "type": "VEC3",
            "count": 96,
            "bufferView": 10,
            "byteOffset": 0
        },
        {
            "componentType": 5126,
            "type": "VEC2",
            "count": 96,
            "bufferView": 11,
            "byteOffset": 0
        }
    ],
    "samplers": [
        {}
    ],
    "materials": [
        {
            "name": "__________",
            "alphaMode": "OPAQUE",
            "extras": {
                "fromFBX": {
                    "shadingModel": "Phong",
                    "isTruePBR": false
                }
            },
            "pbrMetallicRoughness": {
                "baseColorFactor": [
                    0.627499997615814,
                    0.752900004386902,
                    0.827499985694885,
                    1.0
                ],
                "metallicFactor": 0.400000005960464,
                "roughnessFactor": 0.294167757034302
            }
        },
        {
            "name": "Material__198",
            "alphaMode": "OPAQUE",
            "extras": {
                "fromFBX": {
                    "shadingModel": "Phong",
                    "isTruePBR": false
                }
            },
            "pbrMetallicRoughness": {
                "baseColorFactor": [
                    0.627499997615814,
                    0.752900004386902,
                    0.827499985694885,
                    1.0
                ],
                "metallicFactor": 0.400000005960464,
                "roughnessFactor": 0.294167757034302
            }
        },
        {
            "name": "________________",
            "alphaMode": "OPAQUE",
            "extras": {
                "fromFBX": {
                    "shadingModel": "Phong",
                    "isTruePBR": false
                }
            },
            "pbrMetallicRoughness": {
                "baseColorFactor": [
                    0.607800006866455,
                    0.0745000019669533,
                    0.223499998450279,
                    1.0
                ],
                "metallicFactor": 0.400000005960464,
                "roughnessFactor": 0.294167757034302
            }
        }
    ],
    "meshes": [
        {
            "name": "__________",
            "primitives": [
                {
                    "material": 0,
                    "mode": 4,
                    "attributes": {
                        "NORMAL": 2,
                        "POSITION": 1,
                        "TEXCOORD_0": 3
                    },
                    "indices": 0
                },
                {
                    "material": 1,
                    "mode": 4,
                    "attributes": {
                        "NORMAL": 6,
                        "POSITION": 5,
                        "TEXCOORD_0": 7
                    },
                    "indices": 4
                },
                {
                    "material": 2,
                    "mode": 4,
                    "attributes": {
                        "NORMAL": 10,
                        "POSITION": 9,
                        "TEXCOORD_0": 11
                    },
                    "indices": 8
                }
            ]
        }
    ],
    "nodes": [
        {
            "name": "RootNode",
            "translation": [
                0.0,
                0.0,
                0.0
            ],
            "rotation": [
                0.0,
                0.0,
                0.0,
                1.0
            ],
            "scale": [
                1.0,
                1.0,
                1.0
            ],
            "children": [
                1
            ]
        },
        {
            "name": "__________",
            "translation": [
                0.0,
                0.0,
                0.0
            ],
            "rotation": [
                -0.70710676908493,
                -0.0,
                0.0,
                0.70710676908493
            ],
            "scale": [
                0.126999989151955,
                0.126999989151955,
                0.126999989151955
            ],
            "mesh": 0
        }
    ]
}