<?xml version="1.0" standalone="no"?><!DOCTYPE svg PUBLIC "-//W3C//DTD SVG 1.1//EN" "http://www.w3.org/Graphics/SVG/1.1/DTD/svg11.dtd"><svg t="1721010413039" class="icon" viewBox="0 0 1024 1024" version="1.1" xmlns="http://www.w3.org/2000/svg" p-id="6273" xmlns:xlink="http://www.w3.org/1999/xlink" width="64" height="64"><path d="M432.853333 61.226667c119.573333-21.12 247.253333 6.826667 345.706667 78.186666 119.146667 83.626667 195.2 227.306667 191.466667 373.546667 5.013333 174.826667-105.493333 344-263.893334 415.893333-136.96 64.106667-306.88 54.933333-435.093333-26.133333-120.32-73.706667-202.986667-205.866667-214.613333-346.666667C42.346667 421.866667 92.906667 283.2 188.8 188.48c65.813333-66.133333 152.213333-111.04 244.053333-127.253333M253.866667 170.56c-19.733333 9.28-37.76 23.68-50.56 41.386667C102.72 304.533333 62.08 453.866667 84.8 587.093333c21.973333 138.56 118.506667 261.333333 245.226667 320.106667 79.786667 35.306667 170.346667 49.813333 256.64 33.6 138.666667-23.04 265.6-118.506667 320.32-248.533333 83.093333-171.946667 30.933333-393.493333-117.44-512.64C642.453333 52.8 403.306667 43.733333 253.866667 170.56z" fill="#EEA850" p-id="6274"></path><path d="M253.866667 170.56c149.44-126.826667 388.586667-117.76 535.68 9.066667 148.373333 119.146667 200.533333 340.693333 117.44 512.64-7.573333-6.186667-15.36-11.84-23.466667-17.173334-53.44 11.2-106.986667 22.826667-162.133333 23.146667-15.04 25.386667-15.893333 66.026667-50.56 73.386667 16.853333-26.24 22.933333-57.706667 21.12-88.533334-0.213333-15.253333-16.213333-24.64-30.08-24.533333-98.24 0.213333-196.48 0.213333-294.613334 1.6 4.8-4.373333 14.506667-13.013333 19.306667-17.386667 69.866667-6.613333 140.48-3.2 210.666667-7.573333-64-25.706667-110.933333-77.013333-156.586667-126.613333-18.986667-20.48-24.853333-54.293333-51.413333-66.56-10.346667 7.04-20.053333 14.933333-30.613334 21.653333-6.08-1.066667-18.24-2.986667-24.426666-3.946667 26.773333-8.213333 50.773333-33.28 48.213333-62.72-1.28-22.826667-17.6-41.493333-36.693333-52.373333-22.826667-7.146667-49.173333-2.453333-65.92 15.146667 4.053333-23.68 25.28-35.84 40.64-51.733334 13.12-38.506667-11.093333-72.853333-35.093334-100.16 33.28-10.346667 36.693333 37.653333 63.146667 35.626667 5.226667-40.213333-42.773333-70.186667-79.146667-56.533333-3.84-4.16-11.626667-12.373333-15.466666-16.426667m405.76 68.373333c23.36 5.44 21.653333-30.613333 42.986666-31.04 32.106667-9.28 60.693333 23.573333 53.44 54.613334 32.106667 8.96 19.733333-42.133333 8-55.573334-27.84-45.013333-110.4-21.973333-104.426666 32m-18.133334 176.32c8.64 32.96 47.786667 49.6 78.72 37.546667 25.173333-10.773333 41.493333-40.213333 37.76-67.2-8.106667-17.92-20.053333-34.88-37.866666-44.16-42.773333-15.253333-95.893333 29.44-78.613334 73.813333z" fill="#FDED78" p-id="6275"></path><path d="M203.306667 211.946667c12.8-17.706667 30.826667-32.106667 50.56-41.386667 3.84 4.053333 11.626667 12.266667 15.466666 16.426667-27.946667 14.506667-57.92 58.773333-22.4 81.813333 2.986667-25.493333 10.773333-52.373333 38.4-60.906667 24 27.306667 48.213333 61.653333 35.093334 100.16-15.36 15.893333-36.586667 28.053333-40.64 51.733334-41.28 39.253333 0.64 110.186667 54.4 99.946666 6.186667 0.96 18.346667 2.88 24.426666 3.946667 10.56-6.72 20.266667-14.613333 30.613334-21.653333 26.56 12.266667 32.426667 46.08 51.413333 66.56 45.653333 49.6 92.586667 100.906667 156.586667 126.613333-70.186667 4.373333-140.8 0.96-210.666667 7.573333-4.8 4.373333-14.506667 13.013333-19.306667 17.386667-39.68 25.28-12.16 78.08 2.026667 111.04-10.986667 3.84-18.453333 0.853333-22.506667-9.066667-19.84-30.293333-15.253333-68.053333-26.88-100.906666-81.92-92.16-123.946667-222.72-99.733333-344.96 8.213333-35.946667-7.68-70.4-16.853333-104.32z" fill="#FED975" p-id="6276"></path><path d="M269.333333 186.986667c36.373333-13.653333 84.373333 16.32 79.146667 56.533333-26.453333 2.026667-29.866667-45.973333-63.146667-35.626667-27.626667 8.533333-35.413333 35.413333-38.4 60.906667-35.52-23.04-5.546667-67.306667 22.4-81.813333zM659.626667 238.933333c-5.973333-53.973333 76.586667-77.013333 104.426666-32 11.733333 13.44 24.106667 64.533333-8 55.573334 7.253333-31.04-21.333333-63.893333-53.44-54.613334-21.333333 0.426667-19.626667 36.48-42.986666 31.04z" fill="#921500" p-id="6277"></path><path d="M84.8 587.093333C62.08 453.866667 102.72 304.533333 203.306667 211.946667c9.173333 33.92 25.066667 68.373333 16.853333 104.32-24.213333 122.24 17.813333 252.8 99.733333 344.96 11.626667 32.853333 7.04 70.613333 26.88 100.906666 4.053333 9.92 11.52 12.906667 22.506667 9.066667 5.44 7.68 10.986667 15.253333 16.533333 22.826667 6.613333 9.173333 13.76 18.24 23.36 24.533333 56.96 49.173333 143.573333 53.973333 205.973334 12.053333 15.253333-8.213333 26.773333-21.44 38.4-33.813333 4.373333-6.293333 13.013333-18.88 17.28-25.173333 34.666667-7.36 35.52-48 50.56-73.386667 55.146667-0.32 108.693333-11.946667 162.133333-23.146667 8.106667 5.333333 15.893333 10.986667 23.466667 17.173334C852.266667 822.293333 725.333333 917.76 586.666667 940.8c-86.293333 16.213333-176.853333 1.706667-256.64-33.6-126.72-58.773333-223.253333-181.546667-245.226667-320.106667z" fill="#FFCA73" p-id="6278"></path><path d="M279.786667 359.786667c16.746667-17.6 43.093333-22.293333 65.92-15.146667-10.346667 11.2-26.346667 18.026667-32.213334 32.746667-2.773333 21.12 16.64 40.64 37.44 40.533333 7.893333-5.226667 23.573333-15.68 31.466667-20.906667 2.56 29.44-21.44 54.506667-48.213333 62.72-53.76 10.24-95.68-60.693333-54.4-99.946666z" fill="#1F1F1F" p-id="6279"></path><path d="M345.706667 344.64c19.093333 10.88 35.413333 29.546667 36.693333 52.373333-7.893333 5.226667-23.573333 15.68-31.466667 20.906667-20.8 0.106667-40.213333-19.413333-37.44-40.533333 5.866667-14.72 21.866667-21.546667 32.213334-32.746667z" fill="#808080" p-id="6280"></path><path d="M641.493333 415.253333c-17.28-44.373333 35.84-89.066667 78.613334-73.813333-14.613333 8.426667-30.826667 16.96-39.146667 32.32-6.4 21.76 13.333333 42.56 33.6 46.826667 21.12-0.213333 30.08-22.506667 43.413333-34.986667 3.733333 26.986667-12.586667 56.426667-37.76 67.2-30.933333 12.053333-70.08-4.586667-78.72-37.546667z" fill="#16171A" p-id="6281"></path><path d="M720.106667 341.44c17.813333 9.28 29.76 26.24 37.866666 44.16-13.333333 12.48-22.293333 34.773333-43.413333 34.986667-20.266667-4.266667-40-25.066667-33.6-46.826667 8.32-15.36 24.533333-23.893333 39.146667-32.32z" fill="#818181" p-id="6282"></path><path d="M369.28 771.2c-14.186667-32.96-41.706667-85.76-2.026667-111.04 98.133333-1.386667 196.373333-1.386667 294.613334-1.6 13.866667-0.106667 29.866667 9.28 30.08 24.533333 1.813333 30.826667-4.266667 62.293333-21.12 88.533334-4.266667 6.293333-12.906667 18.88-17.28 25.173333-10.453333-7.36-19.306667-16.746667-29.44-24.32-61.76-45.226667-151.893333-45.013333-213.973334-0.533333-8.96 6.293333-16.32 14.613333-24.32 22.08-5.546667-7.573333-11.093333-15.146667-16.533333-22.826667z" fill="#7D180F" p-id="6283"></path><path d="M410.133333 771.946667c62.08-44.48 152.213333-44.693333 213.973334 0.533333-37.866667 2.56-74.133333-14.08-112.213334-10.346667-34.56-2.88-67.306667 14.186667-101.76 9.813334z" fill="#FE8274" p-id="6284"></path><path d="M385.813333 794.026667c8-7.466667 15.36-15.786667 24.32-22.08 34.453333 4.373333 67.2-12.693333 101.76-9.813334 38.08-3.733333 74.346667 12.906667 112.213334 10.346667 10.133333 7.573333 18.986667 16.96 29.44 24.32-11.626667 12.373333-23.146667 25.6-38.4 33.813333-4.693333-2.986667-13.973333-8.96-18.56-11.946666-62.4 1.173333-125.333333-4.266667-187.413334-0.106667-9.6-6.293333-16.746667-15.36-23.36-24.533333z" fill="#E55E3B" p-id="6285"></path><path d="M409.173333 818.56c62.08-4.16 125.013333 1.28 187.413334 0.106667 4.586667 2.986667 13.866667 8.96 18.56 11.946666-62.4 41.92-149.013333 37.12-205.973334-12.053333z" fill="#E1460E" p-id="6286"></path></svg>