{
  "accessors": [
    {
      "name": "AM84_026_0_1_positions",
      "componentType": 5126,
      "count": 452,
      "min": [
        0.39500001072883606,
        -8.675100326538086,
        2.757200002670288
      ],
      "max": [
        6.627200126647949,
        0.9186999797821045,
        10.092499732971191
      ],
      "type": "VEC3",
      "bufferView": 0,
      "byteOffset": 0
    },
    {
      "name": "AM84_026_0_1_normals",
      "componentType": 5126,
      "count": 452,
      "min": [
        -1,
        -0.707099974155426,
        -0.707099974155426
      ],
      "max": [
        1,
        0.707099974155426,
        0.960099995136261
      ],
      "type": "VEC3",
      "bufferView": 0,
      "byteOffset": 98484
    },
    {
      "name": "AM84_026_0_1_texcoords",
      "componentType": 5126,
      "count": 452,
      "min": [
        0.13580000400543213,
        0.019500000402331352
      ],
      "max": [
        0.8641999959945679,
        0.8641999959945679
      ],
      "type": "VEC2",
      "bufferView": 1,
      "byteOffset": 0
    },
    {
      "name": "AM84_026_0_1_0_indices",
      "componentType": 5123,
      "count": 1725,
      "min": [
        0
      ],
      "max": [
        451
      ],
      "type": "SCALAR",
      "bufferView": 2,
      "byteOffset": 0
    },
    {
      "name": "AM84_026_1_1_positions",
      "componentType": 5126,
      "count": 1918,
      "min": [
        -11.34220027923584,
        -21.571399688720703,
        -24.90850067138672
      ],
      "max": [
        10.610699653625488,
        27.691200256347656,
        18.384599685668945
      ],
      "type": "VEC3",
      "bufferView": 0,
      "byteOffset": 5424
    },
    {
      "name": "AM84_026_1_1_normals",
      "componentType": 5126,
      "count": 1918,
      "min": [
        -0.9968000054359436,
        -0.9962999820709229,
        -1
      ],
      "max": [
        0.9968000054359436,
        0.9991000294685364,
        0.9998999834060669
      ],
      "type": "VEC3",
      "bufferView": 0,
      "byteOffset": 103908
    },
    {
      "name": "AM84_026_1_1_texcoords",
      "componentType": 5126,
      "count": 1918,
      "min": [
        -0.08070000261068344,
        -1.2668999433517456
      ],
      "max": [
        1.920699954032898,
        1.3981000185012817
      ],
      "type": "VEC2",
      "bufferView": 1,
      "byteOffset": 3616
    },
    {
      "name": "AM84_026_1_1_0_indices",
      "componentType": 5123,
      "count": 11472,
      "min": [
        0
      ],
      "max": [
        1917
      ],
      "type": "SCALAR",
      "bufferView": 2,
      "byteOffset": 3452
    },
    {
      "name": "AM84_026_2_1_positions",
      "componentType": 5126,
      "count": 64,
      "min": [
        -100.17310333251953,
        -5.1442999839782715,
        -0.4982999861240387
      ],
      "max": [
        99.4437026977539,
        6.25,
        -0.24089999496936798
      ],
      "type": "VEC3",
      "bufferView": 0,
      "byteOffset": 28440
    },
    {
      "name": "AM84_026_2_1_normals",
      "componentType": 5126,
      "count": 64,
      "min": [
        -0.8435999751091003,
        -0.843500018119812,
        -0.01979999989271164
      ],
      "max": [
        0.8435999751091003,
        0.843500018119812,
        0.01979999989271164
      ],
      "type": "VEC3",
      "bufferView": 0,
      "byteOffset": 126924
    },
    {
      "name": "AM84_026_2_1_texcoords",
      "componentType": 5126,
      "count": 64,
      "min": [
        -4.424099922180176,
        0.0005000000237487257
      ],
      "max": [
        5.424099922180176,
        0.9994999766349792
      ],
      "type": "VEC2",
      "bufferView": 1,
      "byteOffset": 18960
    },
    {
      "name": "AM84_026_2_1_0_indices",
      "componentType": 5123,
      "count": 288,
      "min": [
        0
      ],
      "max": [
        63
      ],
      "type": "SCALAR",
      "bufferView": 2,
      "byteOffset": 26396
    },
    {
      "name": "AM84_026_3_1_positions",
      "componentType": 5126,
      "count": 5618,
      "min": [
        -80.283203125,
        -11.750800132751465,
        -17.921899795532227
      ],
      "max": [
        79.55380249023438,
        18.30500030517578,
        12.973099708557129
      ],
      "type": "VEC3",
      "bufferView": 0,
      "byteOffset": 29208
    },
    {
      "name": "AM84_026_3_1_normals",
      "componentType": 5126,
      "count": 5618,
      "min": [
        -1,
        -1,
        -1
      ],
      "max": [
        1,
        1,
        1
      ],
      "type": "VEC3",
      "bufferView": 0,
      "byteOffset": 127692
    },
    {
      "name": "AM84_026_3_1_texcoords",
      "componentType": 5126,
      "count": 5618,
      "min": [
        0,
        0.00930000003427267
      ],
      "max": [
        1.0384999513626099,
        0.9474999904632568
      ],
      "type": "VEC2",
      "bufferView": 1,
      "byteOffset": 19472
    },
    {
      "name": "AM84_026_3_1_0_indices",
      "componentType": 5123,
      "count": 28446,
      "min": [
        0
      ],
      "max": [
        5617
      ],
      "type": "SCALAR",
      "bufferView": 2,
      "byteOffset": 26972
    },
    {
      "name": "AM84_026_4_1_positions",
      "componentType": 5126,
      "count": 155,
      "min": [
        -7.365099906921387,
        -10.534099578857422,
        -10.635299682617188
      ],
      "max": [
        6.634900093078613,
        10.820599555969238,
        10.719400405883789
      ],
      "type": "VEC3",
      "bufferView": 0,
      "byteOffset": 96624
    },
    {
      "name": "AM84_026_4_1_normals",
      "componentType": 5126,
      "count": 155,
      "min": [
        -1,
        -0.707099974155426,
        -0.707099974155426
      ],
      "max": [
        1,
        0.707099974155426,
        0.707099974155426
      ],
      "type": "VEC3",
      "bufferView": 0,
      "byteOffset": 195108
    },
    {
      "name": "AM84_026_4_1_texcoords",
      "componentType": 5126,
      "count": 155,
      "min": [
        -0.2508000135421753,
        -0.14659999310970306
      ],
      "max": [
        1.2508000135421753,
        1.138100028038025
      ],
      "type": "VEC2",
      "bufferView": 1,
      "byteOffset": 64416
    },
    {
      "name": "AM84_026_4_1_0_indices",
      "componentType": 5123,
      "count": 33,
      "min": [
        0
      ],
      "max": [
        24
      ],
      "type": "SCALAR",
      "bufferView": 2,
      "byteOffset": 83864
    },
    {
      "name": "AM84_026_4_1_1_indices",
      "componentType": 5123,
      "count": 219,
      "min": [
        2
      ],
      "max": [
        154
      ],
      "type": "SCALAR",
      "bufferView": 2,
      "byteOffset": 83932
    }
  ],
  "asset": {
    "generator": "obj2gltf",
    "version": "2.0"
  },
  "buffers": [
    {
      "name": "weixin",
      "byteLength": 346996,
      "uri": "data:application/octet-stream;base64,"
    }
  ],
  "bufferViews": [
    {
      "name": "bufferView_0",
      "buffer": 0,
      "byteLength": 196968,
      "byteOffset": 0,
      "byteStride": 12,
      "target": 34962
    },
    {
      "name": "bufferView_1",
      "buffer": 0,
      "byteLength": 65656,
      "byteOffset": 196968,
      "byteStride": 8,
      "target": 34962
    },
    {
      "name": "bufferView_2",
      "buffer": 0,
      "byteLength": 84372,
      "byteOffset": 262624,
      "target": 34963
    }
  ],
  "materials": [
    {
      "name": "AM84_026_Gold_al",
      "pbrMetallicRoughness": {
        "baseColorFactor": [
          0.6941,
          0.5882,
          0.1647,
          1
        ],
        "metallicFactor": 0,
        "roughnessFactor": 0.97
      },
      "emissiveFactor": [
        0,
        0,
        0
      ],
      "alphaMode": "OPAQUE",
      "doubleSided": false
    },
    {
      "name": "AM84_026_Satelit",
      "pbrMetallicRoughness": {
        "baseColorFactor": [
          1,
          1,
          1,
          1
        ],
        "metallicFactor": 0,
        "roughnessFactor": 0.98
      },
      "emissiveFactor": [
        0,
        0,
        0
      ],
      "alphaMode": "OPAQUE",
      "doubleSided": false
    },
    {
      "name": "AM84_026_Solar_B",
      "pbrMetallicRoughness": {
        "baseColorFactor": [
          0.0902,
          0.0902,
          0.2784,
          1
        ],
        "metallicFactor": 0,
        "roughnessFactor": 0.961
      },
      "emissiveFactor": [
        0,
        0,
        0
      ],
      "alphaMode": "OPAQUE",
      "doubleSided": false
    },
    {
      "name": "AM84_026_Metal",
      "pbrMetallicRoughness": {
        "baseColorFactor": [
          0.2824,
          0.3137,
          0.3373,
          1
        ],
        "metallicFactor": 0,
        "roughnessFactor": 0.959
      },
      "emissiveFactor": [
        0,
        0,
        0
      ],
      "alphaMode": "OPAQUE",
      "doubleSided": false
    },
    {
      "name": "AM84_026_Alu",
      "pbrMetallicRoughness": {
        "baseColorFactor": [
          0.5882,
          0.5882,
          0.5882,
          1
        ],
        "metallicFactor": 0,
        "roughnessFactor": 0.973
      },
      "emissiveFactor": [
        0,
        0,
        0
      ],
      "alphaMode": "OPAQUE",
      "doubleSided": false
    },
    {
      "name": "AM84_026_Panel",
      "pbrMetallicRoughness": {
        "baseColorFactor": [
          0.1725,
          0.1725,
          0.2431,
          1
        ],
        "metallicFactor": 0,
        "roughnessFactor": 0.952
      },
      "emissiveFactor": [
        0,
        0,
        0
      ],
      "alphaMode": "OPAQUE",
      "doubleSided": false
    }
  ],
  "meshes": [
    {
      "name": "AM84_026_0_1",
      "primitives": [
        {
          "attributes": {
            "POSITION": 0,
            "NORMAL": 1,
            "TEXCOORD_0": 2
          },
          "indices": 3,
          "material": 0,
          "mode": 4
        }
      ]
    },
    {
      "name": "AM84_026_1_1",
      "primitives": [
        {
          "attributes": {
            "POSITION": 4,
            "NORMAL": 5,
            "TEXCOORD_0": 6
          },
          "indices": 7,
          "material": 1,
          "mode": 4
        }
      ]
    },
    {
      "name": "AM84_026_2_1",
      "primitives": [
        {
          "attributes": {
            "POSITION": 8,
            "NORMAL": 9,
            "TEXCOORD_0": 10
          },
          "indices": 11,
          "material": 2,
          "mode": 4
        }
      ]
    },
    {
      "name": "AM84_026_3_1",
      "primitives": [
        {
          "attributes": {
            "POSITION": 12,
            "NORMAL": 13,
            "TEXCOORD_0": 14
          },
          "indices": 15,
          "material": 3,
          "mode": 4
        }
      ]
    },
    {
      "name": "AM84_026_4_1",
      "primitives": [
        {
          "attributes": {
            "POSITION": 16,
            "NORMAL": 17,
            "TEXCOORD_0": 18
          },
          "indices": 19,
          "material": 4,
          "mode": 4
        },
        {
          "attributes": {
            "POSITION": 16,
            "NORMAL": 17,
            "TEXCOORD_0": 18
          },
          "indices": 20,
          "material": 5,
          "mode": 4
        }
      ]
    }
  ],
  "nodes": [
    {
      "name": "AM84_026_0",
      "mesh": 0
    },
    {
      "name": "AM84_026_1",
      "mesh": 1
    },
    {
      "name": "AM84_026_2",
      "mesh": 2
    },
    {
      "name": "AM84_026_3",
      "mesh": 3
    },
    {
      "name": "AM84_026_4",
      "mesh": 4
    }
  ],
  "scene": 0,
  "scenes": [
    {
      "nodes": [
        0,
        1,
        2,
        3,
        4
      ]
    }
  ]
}
