{
  "accessors": [
    {
      "bufferView": 1,
      "componentType": 5126,
      "count": 7647,
      "max": [
        30.752599716186523,
        -2.182300090789795,
        -2.8580000400543213
      ],
      "min": [
        -35.2041015625,
        -26.48699951171875,
        -27.858999252319336
      ],
      "type": "VEC3"
    },
    {
      "bufferView": 1,
      "byteOffset": 91764,
      "componentType": 5126,
      "count": 7647,
      "max": [
        0.986625611782074,
        0.9950999021530151,
        1.0
      ],
      "min": [
        -0.986486554145813,
        -0.9868932962417603,
        -1.0
      ],
      "type": "VEC3"
    },
    {
      "bufferView": 0,
      "componentType": 5125,
      "count": 21903,
      "type": "SCALAR"
    },
    {
      "bufferView": 1,
      "byteOffset": 183528,
      "componentType": 5126,
      "count": 5949,
      "max": [
        92.54900360107422,
        -2.0,
        31.736000061035156
      ],
      "min": [
        -97.0009994506836,
        -18.16390037536621,
        -75.13400268554688
      ],
      "type": "VEC3"
    },
    {
      "bufferView": 1,
      "byteOffset": 254916,
      "componentType": 5126,
      "count": 5949,
      "max": [
        1.0,
        1.0,
        1.0
      ],
      "min": [
        -1.0,
        -1.0,
        -1.0
      ],
      "type": "VEC3"
    },
    {
      "bufferView": 0,
      "byteOffset": 87612,
      "componentType": 5125,
      "count": 19521,
      "type": "SCALAR"
    },
    {
      "bufferView": 1,
      "byteOffset": 326304,
      "componentType": 5126,
      "count": 950,
      "max": [
        38.53969955444336,
        -0.5730000138282776,
        105.68609619140625
      ],
      "min": [
        -42.871700286865234,
        -27.476900100708008,
        -81.23400115966797
      ],
      "type": "VEC3"
    },
    {
      "bufferView": 1,
      "byteOffset": 337704,
      "componentType": 5126,
      "count": 950,
      "max": [
        1.0,
        1.0,
        1.0
      ],
      "min": [
        -1.0,
        -1.0,
        -1.0
      ],
      "type": "VEC3"
    },
    {
      "bufferView": 0,
      "byteOffset": 165696,
      "componentType": 5125,
      "count": 2760,
      "type": "SCALAR"
    },
    {
      "bufferView": 1,
      "byteOffset": 349104,
      "componentType": 5126,
      "count": 2035,
      "max": [
        99.61930084228516,
        -5.100900173187256,
        109.66500091552734
      ],
      "min": [
        -104.0718994140625,
        -66.09960174560547,
        -3.5230000019073486
      ],
      "type": "VEC3"
    },
    {
      "bufferView": 1,
      "byteOffset": 373524,
      "componentType": 5126,
      "count": 2035,
      "max": [
        0.9999987483024597,
        0.9985718727111816,
        1.0
      ],
      "min": [
        -0.9999987483024597,
        -0.9953045845031738,
        -0.9998874664306641
      ],
      "type": "VEC3"
    },
    {
      "bufferView": 0,
      "byteOffset": 176736,
      "componentType": 5125,
      "count": 6330,
      "type": "SCALAR"
    },
    {
      "bufferView": 1,
      "byteOffset": 397944,
      "componentType": 5126,
      "count": 26665,
      "max": [
        31.917999267578125,
        -1.000100016593933,
        107.3582992553711
      ],
      "min": [
        -36.369998931884766,
        -54.21630096435547,
        -99.06400299072266
      ],
      "type": "VEC3"
    },
    {
      "bufferView": 1,
      "byteOffset": 717924,
      "componentType": 5126,
      "count": 26665,
      "max": [
        1.0,
        1.0,
        1.0
      ],
      "min": [
        -1.0,
        -1.0,
        -1.0
      ],
      "type": "VEC3"
    },
    {
      "bufferView": 0,
      "byteOffset": 202056,
      "componentType": 5125,
      "count": 84618,
      "type": "SCALAR"
    },
    {
      "bufferView": 1,
      "byteOffset": 1037904,
      "componentType": 5126,
      "count": 8295,
      "max": [
        29.615699768066406,
        -0.0,
        19.516000747680664
      ],
      "min": [
        -29.996000289916992,
        -26.99799919128418,
        -74.62200164794922
      ],
      "type": "VEC3"
    },
    {
      "bufferView": 1,
      "byteOffset": 1137444,
      "componentType": 5126,
      "count": 8295,
      "max": [
        1.0,
        1.0,
        1.0
      ],
      "min": [
        -1.0,
        -1.0,
        -1.0
      ],
      "type": "VEC3"
    },
    {
      "bufferView": 0,
      "byteOffset": 540528,
      "componentType": 5125,
      "count": 24543,
      "type": "SCALAR"
    },
    {
      "bufferView": 1,
      "byteOffset": 1236984,
      "componentType": 5126,
      "count": 13797,
      "max": [
        29.51799964904785,
        -2.224299907684326,
        11.435999870300293
      ],
      "min": [
        -34.06869888305664,
        -12.240699768066406,
        -16.36199951171875
      ],
      "type": "VEC3"
    },
    {
      "bufferView": 1,
      "byteOffset": 1402548,
      "componentType": 5126,
      "count": 13797,
      "max": [
        1.0,
        0.9999999403953552,
        1.0
      ],
      "min": [
        -1.0,
        -1.0,
        -1.0
      ],
      "type": "VEC3"
    },
    {
      "bufferView": 0,
      "byteOffset": 638700,
      "componentType": 5125,
      "count": 41199,
      "type": "SCALAR"
    }
  ],
  "asset": {
    "extras": {
      "author": "Yo Boy (https://sketchfab.com/jratanatharathorn)",
      "license": "CC-BY-4.0 (http://creativecommons.org/licenses/by/4.0/)",
      "source": "https://sketchfab.com/3d-models/boeing-737-800-44892d3760284d51a4849dd322b610a1",
      "title": "Boeing 737-800"
    },
    "generator": "Sketchfab-12.68.0",
    "version": "2.0"
  },
  "bufferViews": [
    {
      "buffer": 0,
      "byteLength": 803496,
      "name": "floatBufferViews",
      "target": 34963
    },
    {
      "buffer": 0,
      "byteLength": 1568112,
      "byteOffset": 803496,
      "byteStride": 12,
      "name": "floatBufferViews",
      "target": 34962
    }
  ],
  "buffers": [
    {
      "byteLength": 2371608,
      "uri": "scene.bin"
    }
  ],
  "materials": [
    {
      "doubleSided": true,
      "name": "color_10988977",
      "pbrMetallicRoughness": {
        "baseColorFactor": [
          0.654902,
          0.678431,
          0.694118,
          1.0
        ],
        "metallicFactor": 0.0
      }
    },
    {
      "doubleSided": true,
      "name": "color_12568524",
      "pbrMetallicRoughness": {
        "baseColorFactor": [
          0.74902,
          0.780392,
          0.8,
          1.0
        ],
        "metallicFactor": 0.0
      }
    },
    {
      "doubleSided": true,
      "name": "color_14541540",
      "pbrMetallicRoughness": {
        "baseColorFactor": [
          0.866667,
          0.886275,
          0.894118,
          1.0
        ],
        "metallicFactor": 0.0
      }
    },
    {
      "doubleSided": true,
      "name": "color_15277357",
      "pbrMetallicRoughness": {
        "baseColorFactor": [
          0.913725,
          0.113725,
          0.176471,
          1.0
        ],
        "metallicFactor": 0.0
      }
    },
    {
      "doubleSided": true,
      "name": "color_16448250",
      "pbrMetallicRoughness": {
        "baseColorFactor": [
          0.980392,
          0.980392,
          0.980392,
          1.0
        ],
        "metallicFactor": 0.0
      }
    },
    {
      "doubleSided": true,
      "name": "color_2829873",
      "pbrMetallicRoughness": {
        "baseColorFactor": [
          0.168627,
          0.180392,
          0.192157,
          1.0
        ],
        "metallicFactor": 0.0
      }
    },
    {
      "doubleSided": true,
      "name": "color_6383466",
      "pbrMetallicRoughness": {
        "baseColorFactor": [
          0.380392,
          0.403922,
          0.415686,
          1.0
        ],
        "metallicFactor": 0.0
      }
    }
  ],
  "meshes": [
    {
      "name": "Object_0",
      "primitives": [
        {
          "attributes": {
            "NORMAL": 1,
            "POSITION": 0
          },
          "indices": 2,
          "material": 0,
          "mode": 4
        }
      ]
    },
    {
      "name": "Object_1",
      "primitives": [
        {
          "attributes": {
            "NORMAL": 4,
            "POSITION": 3
          },
          "indices": 5,
          "material": 1,
          "mode": 4
        }
      ]
    },
    {
      "name": "Object_2",
      "primitives": [
        {
          "attributes": {
            "NORMAL": 7,
            "POSITION": 6
          },
          "indices": 8,
          "material": 2,
          "mode": 4
        }
      ]
    },
    {
      "name": "Object_3",
      "primitives": [
        {
          "attributes": {
            "NORMAL": 10,
            "POSITION": 9
          },
          "indices": 11,
          "material": 3,
          "mode": 4
        }
      ]
    },
    {
      "name": "Object_4",
      "primitives": [
        {
          "attributes": {
            "NORMAL": 13,
            "POSITION": 12
          },
          "indices": 14,
          "material": 4,
          "mode": 4
        }
      ]
    },
    {
      "name": "Object_5",
      "primitives": [
        {
          "attributes": {
            "NORMAL": 16,
            "POSITION": 15
          },
          "indices": 17,
          "material": 5,
          "mode": 4
        }
      ]
    },
    {
      "name": "Object_6",
      "primitives": [
        {
          "attributes": {
            "NORMAL": 19,
            "POSITION": 18
          },
          "indices": 20,
          "material": 6,
          "mode": 4
        }
      ]
    }
  ],
  "nodes": [
    {
      "children": [
        1
      ],
      "matrix": [
        1.0,
        0.0,
        0.0,
        0.0,
        0.0,
        -1.0,
        -4.440892098500626e-16,
        0.0,
        0.0,
        4.440892098500626e-16,
        -1.0,
        0.0,
        0.0,
        -27.749319076538093,
        38.35027694702148,
        1.0
      ],
      "name": "Sketchfab_model"
    },
    {
      "children": [
        2,
        3,
        4,
        5,
        6,
        7,
        8
      ],
      "name": "tinker.obj.cleaner.materialmerger.gles"
    },
    {
      "mesh": 0,
      "name": "Object_2"
    },
    {
      "mesh": 1,
      "name": "Object_3"
    },
    {
      "mesh": 2,
      "name": "Object_4"
    },
    {
      "mesh": 3,
      "name": "Object_5"
    },
    {
      "mesh": 4,
      "name": "Object_6"
    },
    {
      "mesh": 5,
      "name": "Object_7"
    },
    {
      "mesh": 6,
      "name": "Object_8"
    }
  ],
  "scene": 0,
  "scenes": [
    {
      "name": "Sketchfab_Scene",
      "nodes": [
        0
      ]
    }
  ]
}
